# xmcd
#
# Track frame offsets: 
#        150
#        20138
#        39535
#        52969
#        64375
#        81478
#        92697
#        105111
#        121882
#        139258
#        162949
#
# Disc length: 2346 seconds
#
# Revision: 1
# Processed by: cddbd v1.5.2PL0 Copyright (c) Steve Scherf et al.
# Submitted via: ExactAudioCopy v1.3
#
DISCID=9009280b
DTITLE=Townes Van Zandt - The Late Great Townes Van Zandt   [2013 rem.
DTITLE=]
DYEAR=1972
DGENRE=Country
TTITLE0=No Lonesome Tune
TTITLE1=Sad Cinderella
TTITLE2=German Mustard (a clapalong)
TTITLE3=Don't Let the Sunshine Fool You
TTITLE4=Honky Tonkin'
TTITLE5=Snow Don't Fall
TTITLE6=Fraulein
TTITLE7=Pancho and Lefty
TTITLE8=If I Needed You
TTITLE9=Silver Ships of Andilar
TTITLE10=Heavenly Houseboat Blues
EXTD=
EXTT0=
EXTT1=
EXTT2=
EXTT3=
EXTT4=
EXTT5=
EXTT6=
EXTT7=
EXTT8=
EXTT9=
EXTT10=
PLAYORDER=
